<?xml version="1.0" encoding="UTF-8" standalone="no"?>
<svg
   xmlns:dc="http://purl.org/dc/elements/1.1/"
   xmlns:cc="http://creativecommons.org/ns#"
   xmlns:rdf="http://www.w3.org/1999/02/22-rdf-syntax-ns#"
   xmlns:svg="http://www.w3.org/2000/svg"
   xmlns="http://www.w3.org/2000/svg"
   xmlns:sodipodi="http://sodipodi.sourceforge.net/DTD/sodipodi-0.dtd"
   xmlns:inkscape="http://www.inkscape.org/namespaces/inkscape"
   xml:space="preserve"
   version="1.1"
   style="clip-rule:evenodd;fill-rule:evenodd;image-rendering:optimizeQuality;shape-rendering:geometricPrecision;text-rendering:geometricPrecision"
   viewBox="0 0 100 100"
   x="0px"
   y="0px"
   id="svg5504"
   sodipodi:docname="noun_Save_1527077.svg"
   width="100"
   height="100"
   inkscape:version="0.92.1 r15371"><metadata
     id="metadata5508"><rdf:RDF><cc:Work
         rdf:about=""><dc:format>image/svg+xml</dc:format><dc:type
           rdf:resource="http://purl.org/dc/dcmitype/StillImage" /><dc:title></dc:title></cc:Work></rdf:RDF></metadata><sodipodi:namedview
     pagecolor="#ffffff"
     bordercolor="#666666"
     borderopacity="1"
     objecttolerance="10"
     gridtolerance="10"
     guidetolerance="10"
     inkscape:pageopacity="0"
     inkscape:pageshadow="2"
     inkscape:window-width="1920"
     inkscape:window-height="1048"
     id="namedview5506"
     showgrid="false"
     inkscape:zoom="2.2678679"
     inkscape:cx="-20.511412"
     inkscape:cy="115.0436"
     inkscape:window-x="0"
     inkscape:window-y="16"
     inkscape:window-maximized="1"
     inkscape:current-layer="svg5504" /><defs
     id="defs5494"><style
       type="text/css"
       id="style5492">
   
    .fil0 {fill:black}
   
  </style></defs><g
     id="g5498"
     transform="matrix(0.29791633,0,0,0.29791633,1.1652054,1.0396761)"><path
       class="fil0"
       d="m 258,184 v -7 H 73 c -6,0 -11,4 -11,10 V 313 H 29 c -5,0 -9,-4 -9,-9 V 29 c 0,-5 4,-9 9,-9 h 53 v 96 c 0,6 5,11 10,11 h 149 c 6,0 11,-5 11,-11 V 24 l 61,61 v 219 c 0,5 -4,9 -9,9 -78,0 -156,0 -234,0 V 187 c 0,-1 1,-3 3,-3 z m 63,120 c 0,10 -7,17 -17,17 H 29 c -9,0 -17,-7 -17,-17 V 29 c 0,-9 8,-17 17,-17 h 222 c 24,24 47,47 70,70 z M 209,38 h 10 c 6,0 11,5 11,11 v 45 c 0,6 -5,11 -11,11 h -10 c -6,0 -11,-5 -11,-11 V 49 c 0,-6 5,-11 11,-11 z m 10,8 h -10 c -1,0 -3,1 -3,3 v 45 c 0,2 2,3 3,3 h 10 c 2,0 3,-1 3,-3 V 49 c 0,-2 -1,-3 -3,-3 z M 90,20 v 96 c 0,2 1,3 2,3 h 149 c 1,0 3,-1 3,-3 V 20 Z"
       id="path5496"
       inkscape:connector-curvature="0"
       style="fill:#000000" /></g></svg>